<svg version="1.1" xmlns="http://www.w3.org/2000/svg" xmlns:xlink="http://www.w3.org/1999/xlink" width="1200" height="800"><defs/><g transform="scale(2,2)"><g id="background-0ceaebcb"><rect fill="white" stroke="none" x="0" y="0" width="600" height="400" class="dcg-svg-background"/></g><g id="graphpaper-0ceaebcb"><g id="grid-0ceaebcb"><g><path fill="none" stroke="rgb(0,0,0)" class="dcg-svg-minor-gridline" paint-order="fill stroke markers" d=" M 230.5 0 L 230.5 400" stroke-opacity="0.3" stroke-miterlimit="10" stroke-dasharray=""/><path fill="none" stroke="rgb(0,0,0)" class="dcg-svg-minor-gridline" paint-order="fill stroke markers" d=" M 415.5 0 L 415.5 400" stroke-opacity="0.3" stroke-miterlimit="10" stroke-dasharray=""/><path fill="none" stroke="rgb(0,0,0)" class="dcg-svg-minor-gridline" paint-order="fill stroke markers" d=" M 0 333.5 L 600 333.5" stroke-opacity="0.3" stroke-miterlimit="10" stroke-dasharray=""/><path fill="none" stroke="rgb(0,0,0)" class="dcg-svg-minor-gridline" paint-order="fill stroke markers" d=" M 0 66.5 L 600 66.5" stroke-opacity="0.3" stroke-miterlimit="10" stroke-dasharray=""/><path fill="none" stroke="rgb(0,0,0)" class="dcg-svg-major-gridline" paint-order="fill stroke markers" d=" M 230.5 0 L 230.5 400" stroke-opacity="0.4285714285714285" stroke-miterlimit="10" stroke-dasharray=""/><path fill="none" stroke="rgb(0,0,0)" class="dcg-svg-major-gridline" paint-order="fill stroke markers" d=" M 415.5 0 L 415.5 400" stroke-opacity="0.4285714285714285" stroke-miterlimit="10" stroke-dasharray=""/><path fill="none" stroke="rgb(0,0,0)" class="dcg-svg-major-gridline" paint-order="fill stroke markers" d=" M 0 333.5 L 600 333.5" stroke-opacity="0.4285714285714285" stroke-miterlimit="10" stroke-dasharray=""/><path fill="none" stroke="rgb(0,0,0)" class="dcg-svg-major-gridline" paint-order="fill stroke markers" d=" M 0 66.5 L 600 66.5" stroke-opacity="0.4285714285714285" stroke-miterlimit="10" stroke-dasharray=""/></g></g><g id="axis-0ceaebcb"><g id="yaxis-0ceaebcb"><title>Y axis</title><g><path fill="none" stroke="rgb(0,0,0)" class="dcg-svg-axis-line" paint-order="fill stroke markers" d=" M 46 0 L 46 400" stroke-opacity="0.9" stroke-miterlimit="10" stroke-width="2" stroke-dasharray=""/></g></g><g id="xaxis-0ceaebcb"><title>X axis</title><g><path fill="none" stroke="rgb(0,0,0)" class="dcg-svg-axis-line" paint-order="fill stroke markers" d=" M 0 200 L 600 200" stroke-opacity="0.9" stroke-miterlimit="10" stroke-width="2" stroke-dasharray=""/></g></g><g><g class="dcg-svg-axis-value"><text fill="none" stroke="#ffffff" font-family="Arial" font-size="17px" font-style="normal" font-weight="normal" text-decoration="normal" x="36.42655123197116" y="218.124" text-anchor="middle" stroke-miterlimit="2" stroke-width="3" stroke-dasharray="">0</text><text fill="#000000" stroke="none" font-family="Arial" font-size="17px" font-style="normal" font-weight="normal" text-decoration="normal" x="36.42655123197116" y="218.124" text-anchor="middle">0</text></g><g class="dcg-svg-axis-value"><text fill="none" stroke="#ffffff" font-family="Arial" font-size="17px" font-style="normal" font-weight="normal" text-decoration="normal" x="230.76923076923077" y="218.124" text-anchor="middle" stroke-miterlimit="2" stroke-width="3" stroke-dasharray="">1</text><text fill="#000000" stroke="none" font-family="Arial" font-size="17px" font-style="normal" font-weight="normal" text-decoration="normal" x="230.76923076923077" y="218.124" text-anchor="middle">1</text></g><g class="dcg-svg-axis-value"><text fill="none" stroke="#ffffff" font-family="Arial" font-size="17px" font-style="normal" font-weight="normal" text-decoration="normal" x="415.38461538461536" y="218.124" text-anchor="middle" stroke-miterlimit="2" stroke-width="3" stroke-dasharray="">2</text><text fill="#000000" stroke="none" font-family="Arial" font-size="17px" font-style="normal" font-weight="normal" text-decoration="normal" x="415.38461538461536" y="218.124" text-anchor="middle">2</text></g><g class="dcg-svg-axis-value dcg-svg-offcenter-axis-value"><text fill="none" stroke="#ffffff" font-family="Arial" font-size="17px" font-style="normal" font-weight="normal" text-decoration="normal" x="592.272705078125" y="218.124" text-anchor="middle" stroke-miterlimit="2" stroke-width="3" stroke-dasharray="">3</text><text fill="#000000" stroke="none" font-family="Arial" font-size="17px" font-style="normal" font-weight="normal" text-decoration="normal" x="592.272705078125" y="218.124" text-anchor="middle">3</text></g><g class="dcg-svg-axis-value"><text fill="none" stroke="#ffffff" font-family="Arial" font-size="17px" font-style="normal" font-weight="normal" text-decoration="normal" x="33.59598482572116" y="337.9573333333334" text-anchor="middle" stroke-miterlimit="2" stroke-width="3" stroke-dasharray="">-1</text><text fill="#000000" stroke="none" font-family="Arial" font-size="17px" font-style="normal" font-weight="normal" text-decoration="normal" x="33.59598482572116" y="337.9573333333334" text-anchor="middle">-1</text></g><g class="dcg-svg-axis-value"><text fill="none" stroke="#ffffff" font-family="Arial" font-size="17px" font-style="normal" font-weight="normal" text-decoration="normal" x="36.42655123197116" y="71.29066666666665" text-anchor="middle" stroke-miterlimit="2" stroke-width="3" stroke-dasharray="">1</text><text fill="#000000" stroke="none" font-family="Arial" font-size="17px" font-style="normal" font-weight="normal" text-decoration="normal" x="36.42655123197116" y="71.29066666666665" text-anchor="middle">1</text></g></g></g></g><g id="expressions-0ceaebcb"><g id="sketch-0ceaebcb"><title>sin x</title></g><g id="sketch-0ceaebcb"><title>Expression 2</title><path fill="#c74440" stroke="none" paint-order="stroke fill markers" d="" fill-opacity="0.4"/><g><path fill="none" stroke="#c74440" class="dcg-svg-curve" paint-order="fill stroke markers" d=" M 7.105427357601002e-15 232.98719456726974 L 7.105427357601002e-15 232.98719456726974 L 22.851562500000007 216.78477586500392 L 102.24609375 160.10935479466983 L 120.263671875 147.9022100174314 L 136.083984375 137.58877076147544 L 150.439453125 128.62469667070178 L 163.76953125 120.6860310814075 L 176.220703125 113.64334762771642 L 187.939453125 107.37308141318344 L 199.21875 101.6900347099367 L 209.912109375 96.64064905065337 L 220.3125 92.0620187971898 L 230.2734375 87.99774067036638 L 239.94140625 84.36463181206705 L 249.31640625 81.1443103294372 L 258.544921875 78.27355404598399 L 267.48046875 75.78364252033253 L 276.26953125 73.61834374212818 L 284.912109375 71.76837515084048 L 293.408203125 70.22361345330208 L 301.7578125 68.97320678606295 L 310.107421875 67.99076792429392 L 318.310546875 67.2884696482906 L 326.513671875 66.84814651293425 L 334.716796875 66.67066772465338 L 342.919921875 66.756383630026 L 351.123046875 67.10512502418868 L 359.326171875 67.71620348485033 L 367.529296875 68.588412731251 L 375.87890625 69.74258309641655 L 384.228515625 71.16314778672498 L 392.724609375 72.87907832627756 L 401.3671875 74.90075172660349 L 410.15625 77.23778162370374 L 419.091796875 79.89890629726685 L 428.3203125 82.94248859994877 L 437.6953125 86.33377723663978 L 447.36328125 90.13787400166625 L 457.32421875 94.37217943479752 L 467.578125 99.05200973834305 L 478.271484375 104.2638094137751 L 489.404296875 110.03069661535268 L 501.123046875 116.45403054245752 L 513.57421875 123.64693047147745 L 526.7578125 131.64062399313013 L 540.966796875 140.64498668876865 L 556.494140625 150.88470973656086 L 574.072265625 162.89194816263742 L 595.166015625 177.73457103446404 L 600 181.18399892535103" stroke-linecap="round" stroke-linejoin="round" stroke-miterlimit="10" stroke-width="3.5" stroke-dasharray=""/></g></g><g id="sketch-0ceaebcb"><title>(sin x)'</title></g><g id="sketch-0ceaebcb"><title>Expression 4</title><path fill="#6042a6" stroke="none" paint-order="stroke fill markers" d="" fill-opacity="0.4"/><g><path fill="none" stroke="#6042a6" class="dcg-svg-curve" paint-order="fill stroke markers" d=" M 7.105427357601002e-15 70.81167710524736 L 7.105427357601002e-15 70.81167710524736 L 8.496093750000007 69.43090446056414 L 16.845703125000007 68.34329681860103 L 25.048828125000007 67.53697148907119 L 33.25195312500001 66.99213075272408 L 41.45507812500001 66.70985013576427 L 49.65820312500001 66.69068686561673 L 57.86132812500001 66.93467877094929 L 66.064453125 67.44134420699791 L 74.267578125 68.20968300634297 L 82.6171875 69.25889710654596 L 90.966796875 70.57549473623749 L 99.462890625 72.18686914062361 L 108.10546875 74.10368889361759 L 116.89453125 76.33588041268666 L 125.830078125 78.89251585583914 L 134.912109375 81.78169675092747 L 144.140625 85.01043386396442 L 153.662109375 88.6426732333843 L 163.4765625 92.69651114279486 L 173.583984375 97.18812894394405 L 184.130859375 102.20329122985477 L 195.1171875 107.76647894329132 L 206.689453125 113.9790965798232 L 218.84765625 120.86978995407222 L 231.73828125 128.54960240329947 L 245.5078125 137.1366964727445 L 260.44921875 146.84845474161207 L 277.1484375 158.11150676545267 L 296.630859375 171.67798158993534 L 322.119140625 189.87850415961677 L 381.4453125 232.3881557183734 L 401.220703125 246.03049655091718 L 418.06640625 257.24150058695204 L 433.154296875 266.88101858895067 L 446.923828125 275.2901832042752 L 459.814453125 282.78405282076176 L 471.97265625 289.48303354126665 L 483.3984375 295.4253633478977 L 494.384765625 300.79482105019054 L 504.931640625 305.6140076872731 L 515.0390625 309.90922747984143 L 524.853515625 313.7648821957418 L 534.375 317.19834785551745 L 543.603515625 320.2288164605065 L 552.685546875 322.9179695329402 L 561.62109375 325.2735255994103 L 570.263671875 327.2727607760618 L 578.90625 328.99312261283626 L 587.40234375 330.40884632866374 L 595.751953125 331.53113345914585 L 600 331.99899954672605" stroke-linecap="round" stroke-linejoin="round" stroke-miterlimit="10" stroke-width="3.5" stroke-dasharray=""/></g></g><g id="sketch-0ceaebcb"><title>(sin x)''</title></g><g id="sketch-0ceaebcb"><title>Expression 6</title><path fill="#2d70b3" stroke="none" paint-order="stroke fill markers" d="" fill-opacity="0.4"/><g><path fill="none" stroke="#2d70b3" class="dcg-svg-curve" paint-order="fill stroke markers" d=" M 7.105427357601002e-15 167.01280543273026 L 7.105427357601002e-15 167.01280543273026 L 22.851562500000007 183.21522413499608 L 102.24609375 239.89064520533017 L 120.263671875 252.0977899825686 L 136.083984375 262.4112292385246 L 150.439453125 271.3753033292982 L 163.76953125 279.3139689185925 L 176.220703125 286.3566523722836 L 187.939453125 292.62691858681654 L 199.21875 298.3099652900633 L 209.912109375 303.35935094934666 L 220.3125 307.9379812028102 L 230.2734375 312.0022593296336 L 239.94140625 315.63536818793295 L 249.31640625 318.8556896705628 L 258.544921875 321.726445954016 L 267.48046875 324.21635747966747 L 276.26953125 326.38165625787184 L 284.912109375 328.2316248491595 L 293.408203125 329.77638654669795 L 301.7578125 331.026793213937 L 310.107421875 332.0092320757061 L 318.310546875 332.71153035170937 L 326.513671875 333.15185348706575 L 334.716796875 333.3293322753466 L 342.919921875 333.243616369974 L 351.123046875 332.8948749758113 L 359.326171875 332.2837965151497 L 367.529296875 331.41158726874903 L 375.87890625 330.2574169035835 L 384.228515625 328.83685221327505 L 392.724609375 327.1209216737224 L 401.3671875 325.0992482733965 L 410.15625 322.76221837629623 L 419.091796875 320.1010937027331 L 428.3203125 317.0575114000512 L 437.6953125 313.6662227633602 L 447.36328125 309.86212599833374 L 457.32421875 305.62782056520246 L 467.578125 300.94799026165697 L 478.271484375 295.7361905862249 L 489.404296875 289.96930338464733 L 501.123046875 283.54596945754247 L 513.57421875 276.35306952852255 L 526.7578125 268.35937600686987 L 540.966796875 259.35501331123135 L 556.494140625 249.11529026343914 L 574.072265625 237.10805183736258 L 595.166015625 222.26542896553596 L 600 218.81600107464897" stroke-linecap="round" stroke-linejoin="round" stroke-miterlimit="10" stroke-width="3.5" stroke-dasharray=""/></g></g><g id="sketch-0ceaebcb"><title>Expression 11</title><path fill="#c74440" stroke="none" paint-order="stroke fill markers" d="" fill-opacity="0.4"/><g><path fill="none" stroke="#c74440" class="dcg-svg-curve" paint-order="fill stroke markers" d=" M 46.15384615384616 200 L 51.15902079616006 196.4092024841356 M 54.34413193217799 194.1241495194946 L 59.349306574491884 190.5333520036302 M 62.53441771050982 188.24829903898922 L 67.53959235282372 184.6575015231248 M 70.72470348884166 182.37244855848382 L 75.72987813115554 178.78165104261944 M 78.91498926717348 176.49659807797846 L 83.0769230769231 173.51075589399184 M 83.0769230769231 173.51075589399184 L 83.93158731252504 172.92204960079124 M 87.15984722267889 170.69837292634114 L 92.23282708149209 167.20402386649099 M 95.46108699164594 164.98034719204088 L 100.53406685045914 161.48599813219073 M 103.76232676061299 159.26232145774063 L 108.83530661942619 155.76797239789047 M 112.06356652958004 153.54429572344037 L 117.13654638839323 150.04994666359022 M 120.37433234819885 147.8406941405525 L 125.57978102185973 144.54692667670776 M 128.89233926873484 142.4508928360793 L 134.0977879423957 139.15712537223456 M 137.41034618927083 137.0610915316061 L 142.6157948629317 133.76732406776136 M 145.9283531098068 131.6712902271329 L 151.1338017834677 128.37752276328817 M 154.44636003034282 126.2814889226597 L 156.9230769230769 124.71433688066195 M 156.9230769230769 124.71433688066195 L 159.75072605031588 123.15498497668892 M 163.1833655281774 121.26200156021994 L 168.57751327910265 118.28731333434013 M 172.01015275696417 116.39432991787115 L 177.40430050788942 113.41964169199133 M 180.83693998575094 111.52665827552235 L 186.2310877366762 108.55197004964252 M 189.66372721453772 106.65898663317354 L 193.84615384615387 104.35252121339695 M 193.84615384615387 104.35252121339695 L 195.10888631403867 103.78657377403019 M 198.68603393502778 102.183322422042 L 204.3072659108678 99.66392744034626 M 207.88441353185692 98.06067608835806 L 213.50564550769693 95.54128110666232 M 217.08279312868603 93.93802975467413 L 222.70402510452607 91.4186347729784 M 226.28117272551518 89.8153834209902 L 230.76923076923077 87.80386869228046 M 230.76923076923077 87.80386869228046 L 231.9494951264488 87.41786149169975 M 235.6752954805441 86.19933298508886 L 241.53012460840813 84.28450247470032 M 245.25592496250343 83.06597396808942 L 251.11075409036746 81.15114345770088 M 254.83655444446276 79.93261495108999 L 260.6913835723268 78.01778444070145 M 264.41718392642207 76.79925593409057 L 267.6923076923077 75.72812187103649 M 267.6923076923077 75.72812187103649 L 270.357358176148 75.21410886687451 M 274.2064202367699 74.47173345410738 L 280.25494633203283 73.30514351975904 M 284.10400839265475 72.56276810699191 L 290.1525344879177 71.39617817264356 M 294.0015965485396 70.65380275987643 L 300.0501226438026 69.48721282552809 M 303.8991847044245 68.74483741276096 L 304.61538461538464 68.60670266820532 M 304.61538461538464 68.60670266820532 L 310.03893564928086 68.33008597323504 M 313.95384704008615 68.1304142372713 L 320.1058506542088 67.81664436647111 M 324.0207620450141 67.61697263050736 L 330.17276565913676 67.30320275970718 M 334.0876770499421 67.10353102374343 L 340.23968066406474 66.78976115294324 M 344.14676149585256 66.96582894926216 L 350.2803510335085 67.53563539320376 M 354.1835443756532 67.89823949389388 L 360.31713391330914 68.46804593783548 M 364.22032725545387 68.83065003852559 L 370.3539167931098 69.4004564824672 M 374.25711013525455 69.76306058315731 L 378.46153846153845 70.15364921624064 M 378.46153846153845 70.15364921624064 L 380.3484228114269 70.59347810721684 M 384.1660791008376 71.48336599674175 L 390.1652532699115 72.88176125170946 M 393.9829095593222 73.77164914123438 L 399.9820837283961 75.17004439620209 M 403.79974001780676 76.05993228572699 L 409.79891418688067 77.4583275406947 M 413.6165704762914 78.34821543021961 L 415.38461538461536 78.7603430899091" stroke-linecap="round" stroke-linejoin="round" stroke-miterlimit="10" stroke-width="1.4" stroke-dasharray=""/></g><path fill="white" stroke="none" class="dcg-svg-point" paint-order="stroke fill markers" d=" M 55.52884615384616 200 A 9.375 9.375 0 1 1 55.52884146634655 199.9906250015625 L 54.02884615384616 200 A 7.875 7.875 0 1 0 54.02884221634649 200.0078749986875 Z"/><path fill="#c74440" stroke="none" class="dcg-svg-point" paint-order="stroke fill markers" d=" M 54.02884615384616 200 A 7.875 7.875 0 1 1 54.02884221634649 199.9921250013125 Z"/><path fill="white" stroke="none" class="dcg-svg-point" paint-order="stroke fill markers" d=" M 92.4519230769231 173.51075589399184 A 9.375 9.375 0 1 1 92.45191838942348 173.50138089555435 L 90.9519230769231 173.51075589399184 A 7.875 7.875 0 1 0 90.95191913942342 173.51863089267934 Z"/><path fill="#c74440" stroke="none" class="dcg-svg-point" paint-order="stroke fill markers" d=" M 90.9519230769231 173.51075589399184 A 7.875 7.875 0 1 1 90.95191913942342 173.50288089530434 Z"/><path fill="white" stroke="none" class="dcg-svg-point" paint-order="stroke fill markers" d=" M 129.375 148.07755435884658 A 9.375 9.375 0 1 1 129.3749953125004 148.0681793604091 L 127.87500000000001 148.07755435884658 A 7.875 7.875 0 1 0 127.87499606250034 148.08542935753408 Z"/><path fill="#c74440" stroke="none" class="dcg-svg-point" paint-order="stroke fill markers" d=" M 127.87500000000001 148.07755435884658 A 7.875 7.875 0 1 1 127.87499606250034 148.06967936015909 Z"/><path fill="white" stroke="none" class="dcg-svg-point" paint-order="stroke fill markers" d=" M 166.2980769230769 124.71433688066195 A 9.375 9.375 0 1 1 166.2980722355773 124.70496188222444 L 164.7980769230769 124.71433688066195 A 7.875 7.875 0 1 0 164.79807298557722 124.72221187934944 Z"/><path fill="#c74440" stroke="none" class="dcg-svg-point" paint-order="stroke fill markers" d=" M 164.7980769230769 124.71433688066195 A 7.875 7.875 0 1 1 164.79807298557722 124.70646188197445 Z"/><path fill="white" stroke="none" class="dcg-svg-point" paint-order="stroke fill markers" d=" M 203.22115384615387 104.35252121339695 A 9.375 9.375 0 1 1 203.22114915865427 104.34314621495945 L 201.72115384615387 104.35252121339695 A 7.875 7.875 0 1 0 201.72114990865418 104.36039621208445 Z"/><path fill="#c74440" stroke="none" class="dcg-svg-point" paint-order="stroke fill markers" d=" M 201.72115384615387 104.35252121339695 A 7.875 7.875 0 1 1 201.72114990865418 104.34464621470946 Z"/><path fill="white" stroke="none" class="dcg-svg-point" paint-order="stroke fill markers" d=" M 240.14423076923077 87.80386869228046 A 9.375 9.375 0 1 1 240.14422608173118 87.79449369384295 L 238.64423076923077 87.80386869228046 A 7.875 7.875 0 1 0 238.6442268317311 87.81174369096796 Z"/><path fill="#c74440" stroke="none" class="dcg-svg-point" paint-order="stroke fill markers" d=" M 238.64423076923077 87.80386869228046 A 7.875 7.875 0 1 1 238.6442268317311 87.79599369359296 Z"/><path fill="white" stroke="none" class="dcg-svg-point" paint-order="stroke fill markers" d=" M 277.0673076923077 75.72812187103649 A 9.375 9.375 0 1 1 277.0673030048081 75.71874687259898 L 275.5673076923077 75.72812187103649 A 7.875 7.875 0 1 0 275.567303754808 75.73599686972399 Z"/><path fill="#c74440" stroke="none" class="dcg-svg-point" paint-order="stroke fill markers" d=" M 275.5673076923077 75.72812187103649 A 7.875 7.875 0 1 1 275.567303754808 75.720246872349 Z"/><path fill="white" stroke="none" class="dcg-svg-point" paint-order="stroke fill markers" d=" M 313.99038461538464 68.60670266820532 A 9.375 9.375 0 1 1 313.99037992788504 68.59732766976781 L 312.49038461538464 68.60670266820532 A 7.875 7.875 0 1 0 312.49038067788496 68.61457766689281 Z"/><path fill="#c74440" stroke="none" class="dcg-svg-point" paint-order="stroke fill markers" d=" M 312.49038461538464 68.60670266820532 A 7.875 7.875 0 1 1 312.49038067788496 68.59882766951782 Z"/><path fill="white" stroke="none" class="dcg-svg-point" paint-order="stroke fill markers" d=" M 350.91346153846155 66.72351959446598 A 9.375 9.375 0 1 1 350.91345685096195 66.71414459602848 L 349.41346153846155 66.72351959446598 A 7.875 7.875 0 1 0 349.41345760096186 66.73139459315348 Z"/><path fill="#c74440" stroke="none" class="dcg-svg-point" paint-order="stroke fill markers" d=" M 349.41346153846155 66.72351959446598 A 7.875 7.875 0 1 1 349.41345760096186 66.71564459577849 Z"/><path fill="white" stroke="none" class="dcg-svg-point" paint-order="stroke fill markers" d=" M 387.83653846153845 70.15364921624064 A 9.375 9.375 0 1 1 387.83653377403886 70.14427421780313 L 386.33653846153845 70.15364921624064 A 7.875 7.875 0 1 0 386.33653452403877 70.16152421492814 Z"/><path fill="#c74440" stroke="none" class="dcg-svg-point" paint-order="stroke fill markers" d=" M 386.33653846153845 70.15364921624064 A 7.875 7.875 0 1 1 386.33653452403877 70.14577421755314 Z"/><path fill="white" stroke="none" class="dcg-svg-point" paint-order="stroke fill markers" d=" M 424.75961538461536 78.7603430899091 A 9.375 9.375 0 1 1 424.75961069711576 78.75096809147159 L 423.25961538461536 78.7603430899091 A 7.875 7.875 0 1 0 423.2596114471157 78.7682180885966 Z"/><path fill="#c74440" stroke="none" class="dcg-svg-point" paint-order="stroke fill markers" d=" M 423.25961538461536 78.7603430899091 A 7.875 7.875 0 1 1 423.2596114471157 78.7524680912216 Z"/></g><g id="sketch-0ceaebcb"><title>Expression 14</title><path fill="#6042a6" stroke="none" paint-order="stroke fill markers" d="" fill-opacity="0.4"/><g><path fill="none" stroke="#6042a6" class="dcg-svg-curve" paint-order="fill stroke markers" d=" M 46.15384615384616 67.55377946995918 L 52.298159279998025 67.99311556886057 M 56.20817672391285 68.27269308634328 L 62.352489850064714 68.71202918524467 M 66.26250729397954 68.99160670272738 L 72.4068204201314 69.43094280162877 M 76.31683786404622 69.71052031911148 L 82.46115099019809 70.14985641801286 M 86.30799714072725 70.87776874231953 L 92.334485343396 72.1533235012752 M 96.16952329054884 72.96504016606517 L 102.19601149321758 74.24059492502083 M 106.03104944037042 75.0523115898108 L 112.05753764303917 76.32786634876646 M 115.892575590192 77.13958301355643 L 120.00000000000001 78.00895246667527 M 120.00000000000001 78.00895246667527 L 121.85525274287764 78.64600003459445 M 125.56277132405462 79.91906954181997 L 131.38887195161846 81.91960733888862 M 135.09639053279545 83.19267684611414 L 140.92249116035927 85.1932146431828 M 144.63000974153627 86.4662841504083 L 150.4561103691001 88.46682194747696 M 154.1636289502771 89.73989145470247 L 156.9230769230769 90.68741713637591 M 156.9230769230769 90.68741713637591 L 159.86720127846854 92.04584446241515 M 163.42658572194412 93.68815453774926 L 169.01990413312006 96.26892751327429 M 172.57928857659564 97.9112375886084 L 178.1726069877716 100.49201056413344 M 181.7319914312472 102.13432063946755 L 187.3253098424231 104.71509361499258 M 190.88469428589872 106.35740369032669 L 193.84615384615387 107.72382952904628 M 193.84615384615387 107.72382952904628 L 196.3739980727668 109.14204091872601 M 199.79271082500568 111.06006154366183 L 205.16497372138107 114.07409395427527 M 208.58368647361996 115.99211457921109 L 213.95594936999535 119.00614698982453 M 217.37466212223424 120.92416761476036 L 222.74692501860963 123.9382000253738 M 226.16563777084852 125.85622065030964 L 230.76923076923077 128.43900164409882 M 230.76923076923077 128.43900164409882 L 231.51216430467255 128.91321779577407 M 234.81641279718139 131.02232706268111 L 240.00880328540953 134.33664162496362 M 243.31305177791836 136.44575089187066 L 248.5054422661465 139.76006545415316 M 251.80969075865534 141.8691747210602 L 257.0020812468835 145.18348928334268 M 260.3063297393923 147.29259855024972 L 265.4987202276205 150.6069131125322 M 268.7767647068196 152.75549204540553 L 273.84665024884515 156.25432907944418 M 277.07294104831595 158.48086173746876 L 282.1428265903415 161.9796987715074 M 285.3691173898123 164.20623142953198 L 290.4390029318378 167.70506846357063 M 293.6652937313086 169.9316011215952 L 298.7351792733342 173.43043815563385 M 301.961470072805 175.65697081365843 L 304.61538461538464 177.48849430857373 M 304.61538461538464 177.48849430857373 L 307.00389575304627 179.19491303009963 M 310.1935166175511 181.4736667993155 L 315.20577797605864 185.05456557951192 M 318.3953988405634 187.3333193487278 L 323.40766019907096 190.9142181289242 M 326.5972810635758 193.1929718981401 L 331.60954242208334 196.7738706783365 M 334.79916328658817 199.05262444755238 L 339.8114246450957 202.63352322774878 M 343.0039343837585 204.90822151394312 L 348.0260958865295 208.47522219239622 M 351.22201684283834 210.7451317150482 L 356.2441783456093 214.3121323935013 M 359.44009930191817 216.58204191615326 L 364.46226080468915 220.14904259460636 M 367.658181760998 222.41895211725833 L 372.680343263769 225.98595279571143 M 375.8762642200778 228.2558623183634 L 378.46153846153845 230.09205873860782 M 378.46153846153845 230.09205873860782 L 381.2822912397124 231.08072282159756 M 384.9816428919037 232.37733276812324 L 390.7949097739186 234.41486268409218 M 394.49426142611 235.71147263061786 L 400.3075283081249 237.7490025465868 M 404.0068799603162 239.0456124931125 L 409.82014684233116 241.08314240908143 M 413.51949849452245 242.3797523556071 L 415.38461538461536 243.0334693683423" stroke-linecap="round" stroke-linejoin="round" stroke-miterlimit="10" stroke-width="1.4" stroke-dasharray=""/></g><path fill="white" stroke="none" class="dcg-svg-point" paint-order="stroke fill markers" d=" M 55.52884615384616 67.55377946995918 A 9.375 9.375 0 1 1 55.52884146634655 67.54440447152167 L 54.02884615384616 67.55377946995918 A 7.875 7.875 0 1 0 54.02884221634649 67.56165446864668 Z"/><path fill="#6042a6" stroke="none" class="dcg-svg-point" paint-order="stroke fill markers" d=" M 54.02884615384616 67.55377946995918 A 7.875 7.875 0 1 1 54.02884221634649 67.54590447127168 Z"/><path fill="white" stroke="none" class="dcg-svg-point" paint-order="stroke fill markers" d=" M 92.4519230769231 70.1938858971165 A 9.375 9.375 0 1 1 92.45191838942348 70.184510898679 L 90.9519230769231 70.1938858971165 A 7.875 7.875 0 1 0 90.95191913942342 70.201760895804 Z"/><path fill="#6042a6" stroke="none" class="dcg-svg-point" paint-order="stroke fill markers" d=" M 90.9519230769231 70.1938858971165 A 7.875 7.875 0 1 1 90.95191913942342 70.186010898429 Z"/><path fill="white" stroke="none" class="dcg-svg-point" paint-order="stroke fill markers" d=" M 129.375 78.00895246667527 A 9.375 9.375 0 1 1 129.3749953125004 77.99957746823776 L 127.87500000000001 78.00895246667527 A 7.875 7.875 0 1 0 127.87499606250034 78.01682746536277 Z"/><path fill="#6042a6" stroke="none" class="dcg-svg-point" paint-order="stroke fill markers" d=" M 127.87500000000001 78.00895246667527 A 7.875 7.875 0 1 1 127.87499606250034 78.00107746798777 Z"/><path fill="white" stroke="none" class="dcg-svg-point" paint-order="stroke fill markers" d=" M 166.2980769230769 90.68741713637591 A 9.375 9.375 0 1 1 166.2980722355773 90.6780421379384 L 164.7980769230769 90.68741713637591 A 7.875 7.875 0 1 0 164.79807298557722 90.69529213506341 Z"/><path fill="#6042a6" stroke="none" class="dcg-svg-point" paint-order="stroke fill markers" d=" M 164.7980769230769 90.68741713637591 A 7.875 7.875 0 1 1 164.79807298557722 90.67954213768841 Z"/><path fill="white" stroke="none" class="dcg-svg-point" paint-order="stroke fill markers" d=" M 203.22115384615387 107.72382952904628 A 9.375 9.375 0 1 1 203.22114915865427 107.71445453060878 L 201.72115384615387 107.72382952904628 A 7.875 7.875 0 1 0 201.72114990865418 107.73170452773378 Z"/><path fill="#6042a6" stroke="none" class="dcg-svg-point" paint-order="stroke fill markers" d=" M 201.72115384615387 107.72382952904628 A 7.875 7.875 0 1 1 201.72114990865418 107.71595453035879 Z"/><path fill="white" stroke="none" class="dcg-svg-point" paint-order="stroke fill markers" d=" M 240.14423076923077 128.43900164409882 A 9.375 9.375 0 1 1 240.14422608173118 128.42962664566133 L 238.64423076923077 128.43900164409882 A 7.875 7.875 0 1 0 238.6442268317311 128.44687664278632 Z"/><path fill="#6042a6" stroke="none" class="dcg-svg-point" paint-order="stroke fill markers" d=" M 238.64423076923077 128.43900164409882 A 7.875 7.875 0 1 1 238.6442268317311 128.43112664541133 Z"/><path fill="white" stroke="none" class="dcg-svg-point" paint-order="stroke fill markers" d=" M 277.0673076923077 152.0070849398121 A 9.375 9.375 0 1 1 277.0673030048081 151.9977099413746 L 275.5673076923077 152.0070849398121 A 7.875 7.875 0 1 0 275.567303754808 152.0149599384996 Z"/><path fill="#6042a6" stroke="none" class="dcg-svg-point" paint-order="stroke fill markers" d=" M 275.5673076923077 152.0070849398121 A 7.875 7.875 0 1 1 275.567303754808 151.9992099411246 Z"/><path fill="white" stroke="none" class="dcg-svg-point" paint-order="stroke fill markers" d=" M 313.99038461538464 177.48849430857373 A 9.375 9.375 0 1 1 313.99037992788504 177.47911931013624 L 312.49038461538464 177.48849430857373 A 7.875 7.875 0 1 0 312.49038067788496 177.49636930726123 Z"/><path fill="#6042a6" stroke="none" class="dcg-svg-point" paint-order="stroke fill markers" d=" M 312.49038461538464 177.48849430857373 A 7.875 7.875 0 1 1 312.49038067788496 177.48061930988624 Z"/><path fill="white" stroke="none" class="dcg-svg-point" paint-order="stroke fill markers" d=" M 350.91346153846155 203.86736637008832 A 9.375 9.375 0 1 1 350.91345685096195 203.85799137165083 L 349.41346153846155 203.86736637008832 A 7.875 7.875 0 1 0 349.41345760096186 203.87524136877582 Z"/><path fill="#6042a6" stroke="none" class="dcg-svg-point" paint-order="stroke fill markers" d=" M 349.41346153846155 203.86736637008832 A 7.875 7.875 0 1 1 349.41345760096186 203.85949137140082 Z"/><path fill="white" stroke="none" class="dcg-svg-point" paint-order="stroke fill markers" d=" M 387.83653846153845 230.09205873860782 A 9.375 9.375 0 1 1 387.83653377403886 230.08268374017032 L 386.33653846153845 230.09205873860782 A 7.875 7.875 0 1 0 386.33653452403877 230.09993373729532 Z"/><path fill="#6042a6" stroke="none" class="dcg-svg-point" paint-order="stroke fill markers" d=" M 386.33653846153845 230.09205873860782 A 7.875 7.875 0 1 1 386.33653452403877 230.08418373992032 Z"/><path fill="white" stroke="none" class="dcg-svg-point" paint-order="stroke fill markers" d=" M 424.75961538461536 243.0334693683423 A 9.375 9.375 0 1 1 424.75961069711576 243.02409436990482 L 423.25961538461536 243.0334693683423 A 7.875 7.875 0 1 0 423.2596114471157 243.0413443670298 Z"/><path fill="#6042a6" stroke="none" class="dcg-svg-point" paint-order="stroke fill markers" d=" M 423.25961538461536 243.0334693683423 A 7.875 7.875 0 1 1 423.2596114471157 243.0255943696548 Z"/></g><g id="sketch-0ceaebcb"><title>Expression 16</title><path fill="#2d70b3" stroke="none" paint-order="stroke fill markers" d="" fill-opacity="0.4"/><g><path fill="none" stroke="#2d70b3" class="dcg-svg-curve" paint-order="fill stroke markers" d=" M 46.15384615384616 213.20053213578657 L 51.96731010291022 215.23749971356796 M 55.66678716140552 216.53375180851975 L 61.48025111046958 218.57071938630114 M 65.17972816896489 219.86697148125293 L 70.99319211802894 221.90393905903431 M 74.69266917652425 223.2001911539861 L 80.5061331255883 225.23715873176747 M 84.06604702591233 226.8102207579414 L 89.16067102057356 230.2729373725407 M 92.40270447172162 232.47648430910388 L 97.49732846638285 235.9392009237032 M 100.73936191753091 238.14274786026638 L 105.83398591219213 241.6054644748657 M 109.0760193633402 243.80901141142888 L 114.17064335800141 247.27172802602817 M 117.41267680914947 249.47527496259136 L 120.00000000000001 251.23382809814854 M 120.00000000000001 251.23382809814854 L 122.5715472579554 252.83940437606026 M 125.89665377043626 254.91547438467205 L 131.1218211471919 258.1778701124906 M 134.44692765967275 260.2539401211024 L 139.67209503642837 263.51633584892096 M 142.99720154890923 265.59240585753275 L 148.22236892566485 268.8548015853513 M 151.5474754381457 270.9308715939631 L 156.77264281490136 274.1932673217816 M 160.21053270887938 276.07606851566874 L 165.62132933192828 279.02036468012 M 169.06456354659576 280.89400769386174 L 174.47536016964466 283.838303858313 M 177.91859438431214 285.71194687205474 L 183.32939100736107 288.65624303650605 M 186.77262522202855 290.5298860502478 L 192.18342184507748 293.47418221469906 M 195.6999928379479 295.19881887670914 L 201.33365376794163 297.69029725828545 M 204.9187107233922 299.27578350110673 L 210.55237165338593 301.76726188268304 M 214.1374286088365 303.3527481255043 L 219.77108953883024 305.8442265070806 M 223.3561464942808 307.42971274990185 L 228.98980742427455 309.92119113147817 M 232.6481439694392 311.314490085181 L 238.51044063103365 313.20633517700503 M 242.24099305204828 314.41023659907484 L 248.1032897136427 316.3020816908989 M 251.83384213465735 317.5059831129687 L 257.6961387962518 319.39782820479275 M 261.4266912172664 320.60172962686255 L 267.2889878788609 322.4935747186866 M 271.12686078613115 323.2773745896855 L 277.17824688104804 324.42903700994873 M 281.0291289414497 325.1619130955708 L 287.0805150363666 326.31357551583403 M 290.93139709676825 327.0464516014561 L 296.98278319168514 328.19811402171933 M 300.8336652520868 328.9309901073414 L 304.61538461538464 329.6507035756905 M 304.61538461538464 329.6507035756905 L 306.92286839202114 329.7668310497743 M 310.83791360827587 329.9638613892682 L 316.9901275195333 330.2734804941872 M 320.905172735788 330.4705108336811 L 327.0573866470454 330.7801299386001 M 330.97243186330013 330.977160278094 L 337.1246457745575 331.286779383013 M 341.03969099081223 331.4838097225069 L 341.53846153846155 331.50891107508517 M 341.53846153846155 331.50891107508517 L 345.72542830973623 327.6994909783824 M 348.6249292287717 325.0614435147244 L 353.1812878158274 320.9159403575474 M 356.08078873486284 318.2778928938894 L 360.6371473219185 314.1323897367124 M 363.5366482409539 311.4943422730544 L 368.0930068280096 307.34883911587747 M 370.99250774704507 304.7107916522194 L 375.54886633410075 300.56528849504247 M 378.44836725313615 297.9272410313844 L 378.46153846153845 297.91525749563493 M 378.46153846153845 297.91525749563493 L 383.02838213687556 293.8078891333725 M 385.9429807061417 291.1865316262721 L 390.52306417213134 287.0672555436857 M 393.4376627413975 284.4458980365853 L 398.0177462073871 280.3266219539989 M 400.9323447766533 277.70526444689847 L 405.5124282426429 273.5859883643121 M 408.42702681190906 270.9646308572116 L 413.0071102778987 266.8453547746252" stroke-linecap="round" stroke-linejoin="round" stroke-miterlimit="10" stroke-width="1.4" stroke-dasharray=""/></g><path fill="white" stroke="none" class="dcg-svg-point" paint-order="stroke fill markers" d=" M 55.52884615384616 213.20053213578657 A 9.375 9.375 0 1 1 55.52884146634655 213.19115713734908 L 54.02884615384616 213.20053213578657 A 7.875 7.875 0 1 0 54.02884221634649 213.20840713447407 Z"/><path fill="#2d70b3" stroke="none" class="dcg-svg-point" paint-order="stroke fill markers" d=" M 54.02884615384616 213.20053213578657 A 7.875 7.875 0 1 1 54.02884221634649 213.19265713709908 Z"/><path fill="white" stroke="none" class="dcg-svg-point" paint-order="stroke fill markers" d=" M 92.4519230769231 226.13793249179022 A 9.375 9.375 0 1 1 92.45191838942348 226.12855749335273 L 90.9519230769231 226.13793249179022 A 7.875 7.875 0 1 0 90.95191913942342 226.14580749047772 Z"/><path fill="#2d70b3" stroke="none" class="dcg-svg-point" paint-order="stroke fill markers" d=" M 90.9519230769231 226.13793249179022 A 7.875 7.875 0 1 1 90.95191913942342 226.13005749310273 Z"/><path fill="white" stroke="none" class="dcg-svg-point" paint-order="stroke fill markers" d=" M 129.375 251.23382809814854 A 9.375 9.375 0 1 1 129.3749953125004 251.22445309971104 L 127.87500000000001 251.23382809814854 A 7.875 7.875 0 1 0 127.87499606250034 251.24170309683603 Z"/><path fill="#2d70b3" stroke="none" class="dcg-svg-point" paint-order="stroke fill markers" d=" M 127.87500000000001 251.23382809814854 A 7.875 7.875 0 1 1 127.87499606250034 251.22595309946104 Z"/><path fill="white" stroke="none" class="dcg-svg-point" paint-order="stroke fill markers" d=" M 166.2980769230769 274.2871926559275 A 9.375 9.375 0 1 1 166.2980722355773 274.27781765749 L 164.7980769230769 274.2871926559275 A 7.875 7.875 0 1 0 164.79807298557722 274.295067654615 Z"/><path fill="#2d70b3" stroke="none" class="dcg-svg-point" paint-order="stroke fill markers" d=" M 164.7980769230769 274.2871926559275 A 7.875 7.875 0 1 1 164.79807298557722 274.27931765724003 Z"/><path fill="white" stroke="none" class="dcg-svg-point" paint-order="stroke fill markers" d=" M 203.22115384615387 294.3789612693073 A 9.375 9.375 0 1 1 203.22114915865427 294.3695862708698 L 201.72115384615387 294.3789612693073 A 7.875 7.875 0 1 0 201.72114990865418 294.3868362679948 Z"/><path fill="#2d70b3" stroke="none" class="dcg-svg-point" paint-order="stroke fill markers" d=" M 201.72115384615387 294.3789612693073 A 7.875 7.875 0 1 1 201.72114990865418 294.3710862706198 Z"/><path fill="white" stroke="none" class="dcg-svg-point" paint-order="stroke fill markers" d=" M 240.14423076923077 310.7081385269146 A 9.375 9.375 0 1 1 240.14422608173118 310.69876352847706 L 238.64423076923077 310.7081385269146 A 7.875 7.875 0 1 0 238.6442268317311 310.7160135256021 Z"/><path fill="#2d70b3" stroke="none" class="dcg-svg-point" paint-order="stroke fill markers" d=" M 238.64423076923077 310.7081385269146 A 7.875 7.875 0 1 1 238.6442268317311 310.7002635282271 Z"/><path fill="white" stroke="none" class="dcg-svg-point" paint-order="stroke fill markers" d=" M 277.0673076923077 322.6237316611872 A 9.375 9.375 0 1 1 277.0673030048081 322.6143566627497 L 275.5673076923077 322.6237316611872 A 7.875 7.875 0 1 0 275.567303754808 322.6316066598747 Z"/><path fill="#2d70b3" stroke="none" class="dcg-svg-point" paint-order="stroke fill markers" d=" M 275.5673076923077 322.6237316611872 A 7.875 7.875 0 1 1 275.567303754808 322.6158566624997 Z"/><path fill="white" stroke="none" class="dcg-svg-point" paint-order="stroke fill markers" d=" M 313.99038461538464 329.6507035756905 A 9.375 9.375 0 1 1 313.99037992788504 329.641328577253 L 312.49038461538464 329.6507035756905 A 7.875 7.875 0 1 0 312.49038067788496 329.658578574378 Z"/><path fill="#2d70b3" stroke="none" class="dcg-svg-point" paint-order="stroke fill markers" d=" M 312.49038461538464 329.6507035756905 A 7.875 7.875 0 1 1 312.49038067788496 329.642828577003 Z"/><path fill="white" stroke="none" class="dcg-svg-point" paint-order="stroke fill markers" d=" M 350.91346153846155 331.50891107508517 A 9.375 9.375 0 1 1 350.91345685096195 331.49953607664764 L 349.41346153846155 331.50891107508517 A 7.875 7.875 0 1 0 349.41345760096186 331.51678607377266 Z"/><path fill="#2d70b3" stroke="none" class="dcg-svg-point" paint-order="stroke fill markers" d=" M 349.41346153846155 331.50891107508517 A 7.875 7.875 0 1 1 349.41345760096186 331.50103607639767 Z"/><path fill="white" stroke="none" class="dcg-svg-point" paint-order="stroke fill markers" d=" M 387.83653846153845 297.91525749563493 A 9.375 9.375 0 1 1 387.83653377403886 297.9058824971974 L 386.33653846153845 297.91525749563493 A 7.875 7.875 0 1 0 386.33653452403877 297.92313249432243 Z"/><path fill="#2d70b3" stroke="none" class="dcg-svg-point" paint-order="stroke fill markers" d=" M 386.33653846153845 297.91525749563493 A 7.875 7.875 0 1 1 386.33653452403877 297.90738249694743 Z"/><path fill="white" stroke="none" class="dcg-svg-point" paint-order="stroke fill markers" d=" M 424.75961538461536 264.70705314867246 A 9.375 9.375 0 1 1 424.75961069711576 264.69767815023494 L 423.25961538461536 264.70705314867246 A 7.875 7.875 0 1 0 423.2596114471157 264.71492814735996 Z"/><path fill="#2d70b3" stroke="none" class="dcg-svg-point" paint-order="stroke fill markers" d=" M 423.25961538461536 264.70705314867246 A 7.875 7.875 0 1 1 423.2596114471157 264.69917814998496 Z"/></g></g><g id="labels-0ceaebcb"><g transform="rotate(0,0,0) translate(432.5,16.5)"><g class="dcg-svg-label"><text fill="none" stroke="#FFF" font-family="arial, sans-serif" font-size="56.1px" font-style="normal" font-weight="400" text-decoration="normal" x="0" y="50.48192868156433" text-anchor="start" stroke-linecap="round" stroke-linejoin="round" stroke-miterlimit="2" stroke-width="3" stroke-dasharray="">sin x</text><text fill="rgb(199, 68, 64)" stroke="none" font-family="arial, sans-serif" font-size="56.1px" font-style="normal" font-weight="400" text-decoration="normal" x="0" y="50.48192868156433" text-anchor="start">sin x</text></g></g><g transform="rotate(0,0,0) translate(309.5,104.5)"><g class="dcg-svg-label"><text fill="none" stroke="#FFF" font-family="arial, sans-serif" font-size="56.1px" font-style="normal" font-weight="400" text-decoration="normal" x="0" y="50.48192868156433" text-anchor="start" stroke-linecap="round" stroke-linejoin="round" stroke-miterlimit="2" stroke-width="3" stroke-dasharray="">(sin x)'</text><text fill="rgb(96, 66, 166)" stroke="none" font-family="arial, sans-serif" font-size="56.1px" font-style="normal" font-weight="400" text-decoration="normal" x="0" y="50.48192868156433" text-anchor="start">(sin x)'</text></g></g><g transform="rotate(0,0,0) translate(162,202.5)"><g class="dcg-svg-label"><text fill="none" stroke="#FFF" font-family="arial, sans-serif" font-size="56.1px" font-style="normal" font-weight="400" text-decoration="normal" x="0" y="50.48192868156433" text-anchor="start" stroke-linecap="round" stroke-linejoin="round" stroke-miterlimit="2" stroke-width="3" stroke-dasharray="">(sin x)''</text><text fill="rgb(45, 112, 179)" stroke="none" font-family="arial, sans-serif" font-size="56.1px" font-style="normal" font-weight="400" text-decoration="normal" x="0" y="50.48192868156433" text-anchor="start">(sin x)''</text></g></g></g><g id="labels-0ceaebcb"/></g></svg>